<svg id="Layer_1" data-name="Layer 1" fill="#1e345b" stroke-width="2px" stroke="#8892b0"
  xmlns="http://www.w3.org/2000/svg"
  viewBox="0 0 185.43 145.29">
  <path
    d="m184.68,138.12c-1.52-2.45-3.05-4.89-4.57-7.34-.74-1.19-1.94-1.9-3.22-1.9h-52.54c-.94,0-1.8-.42-2.5-1.08l-15.96-43.22-.36-1.01c-1.06-2.98.85-6.25,3.66-6.25h57.97c3.22,0,5.09-4.17,3.22-7.17l-4.57-7.34c-.74-1.19-1.94-1.9-3.22-1.9h-62.79c-1.59,0-3.03-1.09-3.64-2.77-4.34-11.82-8.68-23.64-13.02-35.46-1.1-2.99.82-6.29,3.64-6.29h68.12c3.22,0,5.09-4.17,3.22-7.17-1.52-2.45-3.05-4.89-4.57-7.34-.74-1.19-1.94-1.9-3.22-1.9h-79.82s-.09-.01-.13-.01h-15.92c-2.6,0-4.95,1.79-5.96,4.53L.51,135c-1.8,4.89,1.33,10.29,5.96,10.29h6.92c2.62,0,4.99-1.82,5.98-4.6l13.04-36.49c.99-2.78,3.36-4.6,5.98-4.6h47.13c2.6,0,4.95,1.79,5.96,4.53l13.46,36.63c.54,1.46,1.46,2.64,2.6,3.43.7.67,1.57,1.1,2.52,1.1h.82s.02,0,.03,0h7.65s.01,0,.02,0h62.9c3.22,0,5.09-4.17,3.22-7.17Zm-105.02-53.19h-35.45c-2.83,0-4.74-3.3-3.64-6.29l13.09-35.75c3.03-8.84,5.6-17.68,7.93-26.3h.47c2.33,8.41,4.67,17.03,8.17,26.51l13.08,35.53c1.1,2.99-.81,6.29-3.64,6.29Z" />
</svg>